<svg xmlns="http://www.w3.org/2000/svg" width="250" height="250"><desc/><g><g><desc/><path d="M95 176.848c12 7 16 22 9 34s-22 16-34 9c-24-13.5-32-44.5-18.5-68 14-24 44-32 68-18.5-11.5-6.5-26.5-2.5-33.5 9.5-7 11.5-3 27 9 34m-30-52c0 13.5-11.5 25-25 24.5-14 0-25-11-25-25 0-27.5 22.5-50 50-49.5 27.5 0 50 22 50 49.5 0-13.5-11-24.5-25-24.5-13.5 0-25 11-25 25m30-52c-12 7-27.5 3-34-9-7-12-3-27.5 9-34 23.5-14 54.5-6 68 18 14 24 6 54-17.5 68 11.5-7 15.5-22 8.5-34-7-11.5-22-16-34-9m60 0c-12-7-16-22-9-34s22-16 34-9c24 13.5 32 44.5 18.5 68-14 24-44 32-68 18.5 11.5 6.5 27 2.5 33.5-9.5 7-11.5 3-27-9-34m30 52c0-13.5 11-25 25-25 13.5 0 25 11.5 25 25 0 27.5-22.5 50-50 50-27.5.5-49.5-21.5-50-49 .5 13.5 11.5 24.5 25 24.5 14 0 25-11.5 25-25.5m-30 52c12-7 27.5-3 34 9 7 12 3 27.5-9 34.5-24 13.5-54.5 5.5-68.5-18.5-13.5-24-5.5-54 18-68-11.5 7-15.5 22-8.5 34 6.5 11.5 22 16 34 9z" fill-rule="evenodd" fill="#777"/></g><g><desc/><path d="M65 125c0-4 1-6.998 2-10.498-6-4-11.5-9.5-15.5-16.5-13.5-23.5-5.5-54 18-68-11.5 7-15.5 22-8.5 34 6.5 12 22 16 34 9 3-2 6.5-3 10-3 .5-7.5 3-15 7-22 13.5-24 43.5-32 67.5-18.5-11.5-6.5-26.5-2.5-33.5 9.5s-3 27 9 34c3.5 2 6 4.5 8 7.5 6.5-3.5 14-5.5 22-5.5 27.5 0 49.5 22 50 49.5-.5-13.5-11.5-24.5-25-24.5-14 0-25 11.5-25 25 0 3.5-1 7-2 10.5 6 4 11.5 9.5 15.5 16.5 13.5 23.5 5.5 54-18 68 11.5-7 15.5-22 8.5-34-6.5-12-22-16-34-9-3 2-6.5 3-10 3-.5 7.5-3 15-6.5 22-14 24-44 32-68 18.5C82 227 97 223 104 211s3-27-9-34c-3-2-6-4.5-8-7-6.5 3-14 5-22 5-27.5-.5-50-22.5-50-50 0 13.5 11 24.5 25 24.5 13.5 0 25-11 25-24.5m60 12c1.5-1.5 3-2.5 5-3.5s3.5-2 5.5-2.5c-.5-2-.5-3.5-.5-5.5 0-2.5 0-4.5.5-7-2-.5-4-1-5.5-2-2-1-3.5-2.5-5-3.5-1.5 1-3 2.5-5 3.5s-3.5 2-5.5 2.5c.5 2 .5 4 .5 6s0 4-.5 6.5c2 .5 4 1 5.5 2 2 1 3.5 2.5 5 3.5z" fill-rule="evenodd" fill="#f0f0f0"/></g><g><desc/><path d="M115 125c0-5.522 4.478-9.998 10-9.998 5.523 0 10 4.476 10 10 0 5.52-4.477 10-10 10-5.522 0-10-4.48-10-10z" fill-rule="evenodd" fill="#fff"/></g><g><desc/><path d="M95 124.848c0-16.5 13.5-30 30-30s30 13.5 30 30-13.5 30-30 30-30-13.5-30-30m21.5 0c0-4.5 4-8.5 8.5-8.5s8.5 4 8.5 8.5c0 5-4 8.5-8.5 8.5s-8.5-3.5-8.5-8.5z" fill-rule="evenodd" fill="#b7b7b7"/></g></g></svg>