<?xml version="1.0" encoding="UTF-8" standalone="no"?><svg xmlns="http://www.w3.org/2000/svg" xmlns:xlink="http://www.w3.org/1999/xlink" width="56" height="56"><defs><animateTransform xlink:href="#slide" attributeName="transform" type="rotate" from="0,29.68,15.97" to="0,29.68,15.98" values="0,29.68,15.97;-18,29.68,15.97;-23,29.68,15.97;15,29.68,15.97;0,29.68,15.97;0,29.68,15.97" keyTimes="0;0.1;0.2;0.4;0.6;1" dur="6s" fill="freeze" repeatCount="indefinite"/><radialGradient xlink:href="#a" gradientUnits="userSpaceOnUse" cx="29.699" cy="15.826" fx="29.753" fy="21.255" r="24.513"/><defs><radialGradient id="a" gradientUnits="userSpaceOnUse" cx="29.699" cy="15.826" r="24.513" fx="29.753" fy="21.255"><stop offset="0" stop-color="#a5a5a5"/><stop offset="1" stop-color="#fff"/></radialGradient></defs><radialGradient xlink:href="#a" id="f" gradientUnits="userSpaceOnUse" cx="29.699" cy="15.826" fx="29.753" fy="21.255" r="24.513"/><radialGradient xlink:href="#b" gradientUnits="userSpaceOnUse" cx="25.794" cy="20.535" fx="28.056" fy="17.686" r="17.518"/><defs><radialGradient id="b" gradientUnits="userSpaceOnUse" cx="25.794" cy="20.535" r="17.518" fx="28.056" fy="17.686"><stop offset="0" stop-color="#3b3b3b"/><stop offset="1" stop-color="#efefef"/></radialGradient></defs><radialGradient xlink:href="#b" id="e" gradientUnits="userSpaceOnUse" cx="25.794" cy="20.535" fx="28.056" fy="17.686" r="17.518"/><linearGradient xlink:href="#c" gradientUnits="userSpaceOnUse" x1="24.019" y1="18.199" x2="19.125" y2="10.887"/><defs><linearGradient id="c" gradientUnits="userSpaceOnUse" x1="24.019" y1="18.199" x2="19.125" y2="10.887"><stop offset="0" stop-color="#9a9a9a"/><stop offset="1" stop-color="#fff"/></linearGradient></defs><linearGradient xlink:href="#c" id="g" gradientUnits="userSpaceOnUse" x1="24.019" y1="18.199" x2="19.125" y2="10.887"/><filter id="d" color-interpolation-filters="sRGB"><feFlood flood-opacity=".5" flood-color="#000" result="flood"/><feComposite in="flood" in2="SourceGraphic" operator="in" result="composite1"/><feGaussianBlur in="composite" stdDeviation=".5" result="blur"/><feOffset dx=".7" dy=".6" result="offset"/><feComposite in="SourceGraphic" in2="offset" result="composite2"/></filter></defs><g filter="url(#d)" fill-rule="evenodd"><path d="M.465 9.26C.468 4.833 4.667.45 9.845.45l13.28.81c5.176.002 9.37 5.997 9.37 8.015l-.005 8.01c0 2.02-4.2 8.01-9.378 8.008l-13.28.794C4.65 26.084.458 21.694.46 17.27l.003-8.01z" fill="url(#e)"/><path id="slide" d="M30.71 10.808c2.586 0 4.137 2.583 4.137 5.165l2.068 25.31c.517 3.1-3.62 5.165-6.204 5.165h-2.067c-2.068 0-6.204-2.066-6.204-5.165l2.067-25.31c.517-2.582 2.068-5.165 4.136-5.165h2.068m-5.17 5.165c0-2.066 2.07-4.132 4.137-4.132 2.585 0 4.136 2.067 4.136 4.133 0 2.583-1.55 4.133-4.136 4.133-2.068 0-4.136-1.55-4.136-4.133z" fill="url(#f)"/><path d="M5.756 12.466c0-1.77 1.712-3.204 3.82-3.203l19.1.01c2.108.002 3.818 1.437 3.817 3.207v1.602c-.002 1.77-1.713 3.204-3.822 3.202l-19.097-.01c-2.11 0-3.82-1.436-3.818-3.206v-1.602z" fill="url(#g)"/></g></svg>